<svg width="103" height="36" viewBox="0 0 103 36" fill="none" xmlns="http://www.w3.org/2000/svg">
<path d="M30.4839 4.35493L20.8065 0.90332V24.2259H8.6129L0 35.0969L18.6774 31.9033L31.6774 24.2259L30.4839 4.35493Z" fill="#681EE3"/>
<path d="M41.6775 24.2258C40.5484 24.2258 39.5807 24 38.8388 23.5807C38.0646 23.1613 37.4517 22.6452 36.9355 22.0323L38.9355 19.8065C39.3549 20.2581 39.7743 20.6129 40.1936 20.871C40.613 21.129 41.0968 21.2581 41.5807 21.2581C42.1936 21.2581 42.6775 21.0645 43.0001 20.6774C43.3549 20.2903 43.5162 19.6774 43.5162 18.8387V9.48389H46.8065V18.9678C46.8065 19.8387 46.6775 20.5807 46.4517 21.2258C46.2259 21.871 45.871 22.3871 45.4517 22.8387C45.0001 23.2903 44.4517 23.6129 43.8388 23.8387C43.1936 24.0968 42.4839 24.2258 41.6775 24.2258Z" fill="#636363"/>
<path d="M53.4517 24.2259C52.2581 24.2259 51.3227 23.8711 50.6775 23.1291C50.0323 22.3872 49.6775 21.3872 49.6775 20.0969V12.9033H52.8388V19.0969C52.8388 19.8388 53.0001 20.4194 53.3227 20.7743C53.6452 21.1291 54.1291 21.3549 54.742 21.3549C55.3549 21.3549 55.8388 21.1614 56.1936 20.7743C56.5485 20.3872 56.7097 19.8388 56.7097 19.0969V12.9033H59.871V24.0324H56.7097V22.4517C56.5162 22.6775 56.3227 22.9033 56.1291 23.1291C55.9033 23.3549 55.6775 23.5485 55.4194 23.7098C55.1614 23.8711 54.871 24.0001 54.5485 24.0969C54.1936 24.1614 53.8388 24.2259 53.4517 24.2259Z" fill="#636363"/>
<path d="M66.4195 24.1935C65.9356 24.1935 65.484 24.129 65.0969 24.0322C64.7098 23.9355 64.355 23.7419 64.0969 23.4838C63.8066 23.2258 63.5808 22.8709 63.4195 22.4516C63.2582 22.0322 63.1937 21.4838 63.1937 20.8387V15.5806H61.8711V12.8709H63.1937V10.0322H66.355V12.8709H68.9679V15.5806H66.355V20.3548C66.355 21.0645 66.6775 21.4516 67.355 21.4516C67.9034 21.4516 68.4195 21.3226 68.9034 21.0322V23.5484C68.5808 23.7419 68.1937 23.9032 67.8066 24C67.4195 24.129 66.9356 24.1935 66.4195 24.1935Z" fill="#636363"/>
<path d="M71.3225 8.87109H74.6451V11.6775H71.3225V8.87109ZM71.4193 12.9034H74.5806V24.0324H71.4193V12.9034Z" fill="#636363"/>
<path d="M82.5162 27.3873C81.6129 27.3873 80.742 27.2906 79.9033 27.097C79.0645 26.9035 78.3226 26.6132 77.6129 26.2261L78.6774 23.8712C79.2581 24.1938 79.8387 24.4519 80.4194 24.6132C81 24.8067 81.6774 24.8712 82.4194 24.8712C83.4839 24.8712 84.2904 24.6132 84.8065 24.097C85.3226 23.5809 85.5807 22.839 85.5807 21.839V21.2906C85.0968 21.8712 84.6129 22.2906 84.0323 22.6132C83.4839 22.9357 82.7742 23.097 81.9355 23.097C81.2904 23.097 80.6774 22.968 80.0645 22.7422C79.4516 22.5164 78.9355 22.1938 78.4839 21.7422C78.0323 21.2906 77.6774 20.7422 77.3871 20.1293C77.0968 19.5164 76.9678 18.7422 76.9678 17.9357V17.9035C76.9678 17.0648 77.0968 16.3228 77.3871 15.7099C77.6774 15.0648 78.0323 14.5164 78.4839 14.097C78.9355 13.6454 79.4516 13.3228 80.0645 13.097C80.6452 12.8712 81.2904 12.7422 81.9033 12.7422C82.7742 12.7422 83.4516 12.9035 84.0323 13.2261C84.5807 13.5486 85.0645 13.9357 85.5162 14.4196V12.968H88.6774V21.5809C88.6774 23.5486 88.1936 25.0003 87.2581 25.968C86.742 26.4841 86.0645 26.8712 85.2904 27.097C84.5162 27.2583 83.5807 27.3873 82.5162 27.3873ZM82.871 20.4841C83.2581 20.4841 83.6129 20.4196 83.9355 20.2906C84.2581 20.1615 84.5484 20.0003 84.8065 19.7744C85.0645 19.5486 85.2258 19.2583 85.3871 18.968C85.5162 18.6454 85.5807 18.2906 85.5807 17.9357V17.9035C85.5807 17.5164 85.5162 17.1938 85.3871 16.8712C85.2581 16.5486 85.0645 16.2906 84.8065 16.0648C84.5484 15.839 84.2904 15.6454 83.9355 15.5486C83.5807 15.4519 83.2581 15.3551 82.871 15.3551C82.4839 15.3551 82.1291 15.4196 81.8065 15.5486C81.4839 15.6777 81.1936 15.839 80.9678 16.0648C80.7097 16.2906 80.5484 16.5809 80.3871 16.8712C80.2581 17.1938 80.1936 17.5486 80.1936 17.9035V17.9357C80.1936 18.7099 80.4516 19.3228 80.9678 19.8067C81.4516 20.2583 82.0968 20.4841 82.871 20.4841Z" fill="#636363"/>
<path d="M96.9678 24.2584C96.0968 24.2584 95.3226 24.0971 94.5807 23.8068C93.8387 23.5165 93.2258 23.0971 92.6774 22.581C92.1291 22.0649 91.742 21.452 91.4194 20.7423C91.1291 20.0326 90.9678 19.2907 90.9678 18.4842V18.452C90.9678 17.6455 91.1291 16.9036 91.4194 16.1939C91.7097 15.4842 92.1291 14.8713 92.6774 14.3552C93.2258 13.8391 93.8387 13.4197 94.5807 13.0971C95.3226 12.8068 96.1291 12.6455 97 12.6455C97.871 12.6455 98.6452 12.8068 99.3871 13.0971C100.129 13.3874 100.742 13.8068 101.29 14.3229C101.839 14.8391 102.226 15.452 102.548 16.1616C102.839 16.8713 103 17.6132 103 18.4197V18.452C103 19.2584 102.839 20.0003 102.548 20.71C102.258 21.4197 101.839 22.0326 101.29 22.5487C100.742 23.0649 100.129 23.4842 99.3871 23.8068C98.6452 24.0971 97.8387 24.2584 96.9678 24.2584ZM97.0323 21.5487C97.4839 21.5487 97.9033 21.4842 98.2581 21.3229C98.6129 21.1616 98.9033 20.9358 99.1613 20.6778C99.4194 20.3874 99.6129 20.0649 99.742 19.71C99.871 19.3552 99.9355 18.9681 99.9355 18.5487V18.5165C99.9355 18.0971 99.871 17.71 99.742 17.3552C99.6129 17.0003 99.3871 16.6778 99.1291 16.3874C98.871 16.0971 98.5484 15.8713 98.1936 15.71C97.8387 15.5487 97.4516 15.452 97 15.452C96.5484 15.452 96.1291 15.5165 95.7742 15.6778C95.4194 15.8391 95.1291 16.0649 94.871 16.3229C94.6129 16.6132 94.4194 16.9358 94.2904 17.2907C94.1613 17.6455 94.0968 18.0326 94.0968 18.452V18.4842C94.0968 18.9036 94.1613 19.2907 94.2904 19.6455C94.4194 20.0003 94.6129 20.3229 94.9033 20.6132C95.1613 20.9036 95.4839 21.1294 95.8387 21.2907C96.1936 21.452 96.5807 21.5487 97.0323 21.5487Z" fill="#636363"/>
</svg>
